M48
;Layer_Color=6321
;FILE_FORMAT=4:4
METRIC,LZ
;TYPE=PLATED
T1F00S00C0.5000
T2F00S00C0.8000
T3F00S00C1.0000
%
T01
X0058655Y0049095
Y0051635
X005753Y0056395
X0057605Y0060765
X0065005Y005735
X007199Y0057985
X0072625Y004465
X0069845Y004489
X006691Y0046555
X0062465Y00456201
T02
X004375Y005227
X004875
T03
X0053575Y0046555
X0056115
Y0049095
X0053575
Y0051635
X0056115
X0051035Y0059255
X0048495
X004532
X004278
M30
