G04 Layer_Color=7318015*
%FSLAX44Y44*%
%MOMM*%
G71*
G01*
G75*
%ADD10R,1.8000X0.6000*%
%ADD11R,0.8000X0.2500*%
%ADD13R,1.3500X1.1500*%
%ADD14R,1.0500X1.4500*%
%ADD15R,2.5000X1.7000*%
%ADD16O,0.6000X2.2000*%
%ADD17R,1.4500X1.0500*%
D10*
X558450Y544950D02*
D03*
Y563950D02*
D03*
X538450Y554450D02*
D03*
X558450Y589400D02*
D03*
Y608400D02*
D03*
X538450Y598900D02*
D03*
D11*
X636600Y470750D02*
D03*
Y475750D02*
D03*
Y480750D02*
D03*
Y485750D02*
D03*
X612700Y470750D02*
D03*
Y475750D02*
D03*
Y480750D02*
D03*
Y485750D02*
D03*
D13*
X656400Y431400D02*
D03*
Y448900D02*
D03*
X719900Y507600D02*
D03*
Y525100D02*
D03*
X618300Y607650D02*
D03*
Y590150D02*
D03*
X592900D02*
D03*
Y607650D02*
D03*
X618300Y563200D02*
D03*
Y545700D02*
D03*
X592900D02*
D03*
Y563200D02*
D03*
X681800Y431400D02*
D03*
Y448900D02*
D03*
D14*
X615400Y503650D02*
D03*
X633900D02*
D03*
X431250Y560800D02*
D03*
X449750D02*
D03*
D15*
X482500Y478250D02*
D03*
X442500D02*
D03*
D16*
X694500Y550350D02*
D03*
X681800D02*
D03*
X669100D02*
D03*
X656400D02*
D03*
X694500Y482350D02*
D03*
X681800D02*
D03*
X669100D02*
D03*
X656400D02*
D03*
D17*
X719900Y545200D02*
D03*
Y563700D02*
D03*
Y487500D02*
D03*
Y469000D02*
D03*
M02*
