G04 Layer_Physical_Order=2*
G04 Layer_Color=11436288*
%FSLAX44Y44*%
%MOMM*%
G71*
G01*
G75*
%ADD18C,0.2500*%
%ADD19R,1.8000X1.8000*%
%ADD20C,1.8000*%
%ADD21C,1.6000*%
%ADD22C,3.2000*%
%ADD23C,1.0000*%
G36*
X731763Y453374D02*
X730493Y452748D01*
X730052Y453086D01*
X728218Y453846D01*
X727520Y453938D01*
Y446500D01*
Y439062D01*
X728218Y439154D01*
X730052Y439914D01*
X730493Y440252D01*
X731763Y439625D01*
Y403237D01*
X403237D01*
Y616763D01*
X731763D01*
Y453374D01*
D02*
G37*
%LPC*%
G36*
X535750Y527989D02*
X532737Y527593D01*
X529930Y526430D01*
X527519Y524580D01*
X525670Y522170D01*
X524507Y519362D01*
X524110Y516350D01*
X524507Y513337D01*
X525670Y510530D01*
X527519Y508120D01*
X529930Y506270D01*
X532737Y505107D01*
X535750Y504710D01*
X538762Y505107D01*
X541570Y506270D01*
X543980Y508120D01*
X545830Y510530D01*
X546993Y513337D01*
X547389Y516350D01*
X546993Y519362D01*
X545830Y522170D01*
X543980Y524580D01*
X541570Y526430D01*
X538762Y527593D01*
X535750Y527989D01*
D02*
G37*
G36*
X561150D02*
X558137Y527593D01*
X555330Y526430D01*
X552919Y524580D01*
X551070Y522170D01*
X549907Y519362D01*
X549510Y516350D01*
X549907Y513337D01*
X551070Y510530D01*
X552919Y508120D01*
X555330Y506270D01*
X558137Y505107D01*
X561150Y504710D01*
X564162Y505107D01*
X566970Y506270D01*
X569380Y508120D01*
X571230Y510530D01*
X572393Y513337D01*
X572789Y516350D01*
X572393Y519362D01*
X571230Y522170D01*
X569380Y524580D01*
X566970Y526430D01*
X564162Y527593D01*
X561150Y527989D01*
D02*
G37*
G36*
Y502589D02*
X558137Y502193D01*
X555330Y501030D01*
X552919Y499180D01*
X551070Y496770D01*
X549907Y493962D01*
X549510Y490950D01*
X549907Y487937D01*
X551070Y485130D01*
X552919Y482719D01*
X555330Y480870D01*
X558137Y479707D01*
X561150Y479310D01*
X564162Y479707D01*
X566970Y480870D01*
X569380Y482719D01*
X571230Y485130D01*
X572393Y487937D01*
X572789Y490950D01*
X572393Y493962D01*
X571230Y496770D01*
X569380Y499180D01*
X566970Y501030D01*
X564162Y502193D01*
X561150Y502589D01*
D02*
G37*
G36*
X586550Y523955D02*
X584581Y523696D01*
X582747Y522936D01*
X581172Y521727D01*
X579964Y520152D01*
X579204Y518318D01*
X578945Y516350D01*
X579204Y514381D01*
X579964Y512547D01*
X581172Y510972D01*
X582747Y509764D01*
X584581Y509004D01*
X586550Y508745D01*
X588441Y508994D01*
X595386Y502049D01*
Y491841D01*
X595328Y491770D01*
X594681Y491816D01*
X593997Y492146D01*
X593896Y492918D01*
X593136Y494752D01*
X591927Y496328D01*
X590352Y497536D01*
X588518Y498296D01*
X586550Y498555D01*
X584581Y498296D01*
X582747Y497536D01*
X581172Y496328D01*
X579964Y494752D01*
X579204Y492918D01*
X578945Y490950D01*
X579204Y488982D01*
X579964Y487147D01*
X581172Y485572D01*
X582686Y484411D01*
Y478250D01*
X582980Y476771D01*
X583817Y475517D01*
X640967Y418368D01*
X640967Y418367D01*
X641805Y417808D01*
X642221Y417530D01*
X643700Y417236D01*
X643700Y417236D01*
X688150D01*
X689629Y417530D01*
X690882Y418367D01*
X701182Y428667D01*
X701182Y428667D01*
X701742Y429505D01*
X702020Y429921D01*
X702314Y431400D01*
X702314Y431400D01*
Y442361D01*
X703827Y443522D01*
X705036Y445097D01*
X705796Y446931D01*
X706055Y448900D01*
X705796Y450868D01*
X705036Y452702D01*
X703827Y454277D01*
X702252Y455486D01*
X700418Y456246D01*
X698450Y456505D01*
X696481Y456246D01*
X694647Y455486D01*
X693072Y454277D01*
X691864Y452702D01*
X691104Y450868D01*
X690845Y448900D01*
X691104Y446931D01*
X691864Y445097D01*
X693072Y443522D01*
X694586Y442361D01*
Y433000D01*
X686549Y424964D01*
X645301D01*
X622692Y447573D01*
X623285Y448776D01*
X623380Y448763D01*
Y456201D01*
X624650D01*
Y457471D01*
X632088D01*
X631996Y458170D01*
X631236Y460004D01*
X630920Y460416D01*
X631546Y461686D01*
X662561D01*
X663722Y460172D01*
X665297Y458964D01*
X667132Y458204D01*
X669100Y457945D01*
X671068Y458204D01*
X672902Y458964D01*
X674477Y460172D01*
X675686Y461747D01*
X676446Y463582D01*
X676705Y465550D01*
X676446Y467518D01*
X675686Y469352D01*
X674477Y470928D01*
X672902Y472136D01*
X671068Y472896D01*
X669100Y473155D01*
X667132Y472896D01*
X665297Y472136D01*
X663722Y470928D01*
X662561Y469414D01*
X613550D01*
X603114Y479851D01*
Y503650D01*
X603114Y503650D01*
X602820Y505129D01*
X601982Y506382D01*
X593906Y514459D01*
X594155Y516350D01*
X593896Y518318D01*
X593136Y520152D01*
X591927Y521727D01*
X590352Y522936D01*
X588518Y523696D01*
X586550Y523955D01*
D02*
G37*
G36*
X437500Y533331D02*
X434748Y532969D01*
X432184Y531907D01*
X429983Y530217D01*
X428293Y528015D01*
X427231Y525451D01*
X426869Y522700D01*
X427231Y519948D01*
X428293Y517384D01*
X429983Y515183D01*
X432184Y513493D01*
X434748Y512431D01*
X437500Y512069D01*
X440251Y512431D01*
X442815Y513493D01*
X445017Y515183D01*
X446707Y517384D01*
X447769Y519948D01*
X448131Y522700D01*
X447769Y525451D01*
X446707Y528015D01*
X445017Y530217D01*
X442815Y531907D01*
X440251Y532969D01*
X437500Y533331D01*
D02*
G37*
G36*
X574030Y562680D02*
X567862D01*
X567954Y561982D01*
X568714Y560147D01*
X569922Y558572D01*
X571497Y557364D01*
X573331Y556604D01*
X574030Y556512D01*
Y562680D01*
D02*
G37*
G36*
X582738D02*
X576570D01*
Y556512D01*
X577268Y556604D01*
X579102Y557364D01*
X580677Y558572D01*
X581886Y560147D01*
X582646Y561982D01*
X582738Y562680D01*
D02*
G37*
G36*
X574030Y571388D02*
X573331Y571296D01*
X571497Y570536D01*
X569922Y569327D01*
X568714Y567752D01*
X567954Y565918D01*
X567862Y565220D01*
X574030D01*
Y571388D01*
D02*
G37*
G36*
X487500Y533331D02*
X484748Y532969D01*
X482184Y531907D01*
X479983Y530217D01*
X478293Y528015D01*
X477231Y525451D01*
X476869Y522700D01*
X477231Y519948D01*
X478293Y517384D01*
X479983Y515183D01*
X482184Y513493D01*
X484748Y512431D01*
X487500Y512069D01*
X490251Y512431D01*
X492815Y513493D01*
X495017Y515183D01*
X496707Y517384D01*
X497769Y519948D01*
X498131Y522700D01*
X497769Y525451D01*
X496707Y528015D01*
X495017Y530217D01*
X492815Y531907D01*
X490251Y532969D01*
X487500Y533331D01*
D02*
G37*
G36*
X535750Y502589D02*
X532737Y502193D01*
X529930Y501030D01*
X527519Y499180D01*
X525670Y496770D01*
X524507Y493962D01*
X524110Y490950D01*
X524507Y487937D01*
X525670Y485130D01*
X527519Y482719D01*
X529930Y480870D01*
X532737Y479707D01*
X535750Y479310D01*
X538762Y479707D01*
X541570Y480870D01*
X543980Y482719D01*
X545830Y485130D01*
X546993Y487937D01*
X547389Y490950D01*
X546993Y493962D01*
X545830Y496770D01*
X543980Y499180D01*
X541570Y501030D01*
X538762Y502193D01*
X535750Y502589D01*
D02*
G37*
G36*
X724980Y453938D02*
X724281Y453846D01*
X722447Y453086D01*
X720872Y451878D01*
X719664Y450302D01*
X718904Y448468D01*
X718812Y447770D01*
X724980D01*
Y453938D01*
D02*
G37*
G36*
X632088Y454931D02*
X625920D01*
Y448763D01*
X626618Y448855D01*
X628452Y449615D01*
X630027Y450824D01*
X631236Y452399D01*
X631996Y454233D01*
X632088Y454931D01*
D02*
G37*
G36*
X440000Y453630D02*
X436366Y453272D01*
X432871Y452212D01*
X429650Y450490D01*
X426827Y448173D01*
X424510Y445350D01*
X422788Y442129D01*
X421728Y438634D01*
X421370Y435000D01*
X421728Y431366D01*
X422788Y427871D01*
X424510Y424650D01*
X426827Y421827D01*
X429650Y419510D01*
X432871Y417788D01*
X436366Y416728D01*
X440000Y416370D01*
X443634Y416728D01*
X447129Y417788D01*
X450350Y419510D01*
X453173Y421827D01*
X455490Y424650D01*
X457212Y427871D01*
X458272Y431366D01*
X458630Y435000D01*
X458272Y438634D01*
X457212Y442129D01*
X455490Y445350D01*
X453173Y448173D01*
X450350Y450490D01*
X447129Y452212D01*
X443634Y453272D01*
X440000Y453630D01*
D02*
G37*
G36*
X724980Y445230D02*
X718812D01*
X718904Y444532D01*
X719664Y442697D01*
X720872Y441122D01*
X722447Y439914D01*
X724281Y439154D01*
X724980Y439062D01*
Y445230D01*
D02*
G37*
G36*
X561150Y477189D02*
X558137Y476793D01*
X555330Y475630D01*
X552919Y473780D01*
X551070Y471370D01*
X549907Y468562D01*
X549510Y465550D01*
X549907Y462537D01*
X551070Y459730D01*
X552919Y457319D01*
X555330Y455470D01*
X558137Y454307D01*
X561150Y453910D01*
X564162Y454307D01*
X566970Y455470D01*
X569380Y457319D01*
X571230Y459730D01*
X572393Y462537D01*
X572789Y465550D01*
X572393Y468562D01*
X571230Y471370D01*
X569380Y473780D01*
X566970Y475630D01*
X564162Y476793D01*
X561150Y477189D01*
D02*
G37*
G36*
X534480Y477022D02*
X532737Y476793D01*
X529930Y475630D01*
X527519Y473780D01*
X525670Y471370D01*
X524507Y468562D01*
X524277Y466820D01*
X534480D01*
Y477022D01*
D02*
G37*
G36*
X537020D02*
Y466820D01*
X547222D01*
X546993Y468562D01*
X545830Y471370D01*
X543980Y473780D01*
X541570Y475630D01*
X538762Y476793D01*
X537020Y477022D01*
D02*
G37*
G36*
X534480Y464280D02*
X524277D01*
X524507Y462537D01*
X525670Y459730D01*
X527519Y457319D01*
X529930Y455470D01*
X532737Y454307D01*
X534480Y454077D01*
Y464280D01*
D02*
G37*
G36*
X547222D02*
X537020D01*
Y454077D01*
X538762Y454307D01*
X541570Y455470D01*
X543980Y457319D01*
X545830Y459730D01*
X546993Y462537D01*
X547222Y464280D01*
D02*
G37*
G36*
X576570Y571388D02*
Y565220D01*
X582738D01*
X582646Y565918D01*
X581886Y567752D01*
X580677Y569327D01*
X579102Y570536D01*
X577268Y571296D01*
X576570Y571388D01*
D02*
G37*
G36*
X721170Y587288D02*
Y581120D01*
X727338D01*
X727246Y581818D01*
X726486Y583652D01*
X725277Y585228D01*
X723702Y586436D01*
X721868Y587196D01*
X721170Y587288D01*
D02*
G37*
G36*
X509080Y604022D02*
X507337Y603793D01*
X504530Y602630D01*
X502119Y600780D01*
X500270Y598370D01*
X499107Y595562D01*
X498877Y593820D01*
X509080D01*
Y604022D01*
D02*
G37*
G36*
X718630Y587288D02*
X717932Y587196D01*
X716097Y586436D01*
X714522Y585228D01*
X713314Y583652D01*
X712554Y581818D01*
X712462Y581120D01*
X718630D01*
Y587288D01*
D02*
G37*
G36*
X509080Y591280D02*
X498877D01*
X499107Y589537D01*
X500270Y586730D01*
X502119Y584319D01*
X504530Y582470D01*
X507337Y581307D01*
X509080Y581077D01*
Y591280D01*
D02*
G37*
G36*
X521822D02*
X511620D01*
Y581077D01*
X513362Y581307D01*
X516170Y582470D01*
X518580Y584319D01*
X520430Y586730D01*
X521593Y589537D01*
X521822Y591280D01*
D02*
G37*
G36*
X574780Y615088D02*
X574081Y614996D01*
X572247Y614236D01*
X570672Y613027D01*
X569464Y611452D01*
X568704Y609618D01*
X568612Y608920D01*
X574780D01*
Y615088D01*
D02*
G37*
G36*
X577320D02*
Y608920D01*
X583488D01*
X583396Y609618D01*
X582636Y611452D01*
X581427Y613027D01*
X579852Y614236D01*
X578018Y614996D01*
X577320Y615088D01*
D02*
G37*
G36*
X583488Y606380D02*
X577320D01*
Y600212D01*
X578018Y600304D01*
X579852Y601064D01*
X581427Y602272D01*
X582636Y603847D01*
X583396Y605681D01*
X583488Y606380D01*
D02*
G37*
G36*
X511620Y604022D02*
Y593820D01*
X521822D01*
X521593Y595562D01*
X520430Y598370D01*
X518580Y600780D01*
X516170Y602630D01*
X513362Y603793D01*
X511620Y604022D01*
D02*
G37*
G36*
X574780Y606380D02*
X568612D01*
X568704Y605681D01*
X569464Y603847D01*
X570672Y602272D01*
X572247Y601064D01*
X574081Y600304D01*
X574780Y600212D01*
Y606380D01*
D02*
G37*
G36*
X718630Y578580D02*
X712462D01*
X712554Y577882D01*
X713314Y576047D01*
X714522Y574472D01*
X716097Y573264D01*
X717932Y572504D01*
X718630Y572412D01*
Y578580D01*
D02*
G37*
G36*
X727338D02*
X721170D01*
Y572412D01*
X721868Y572504D01*
X723702Y573264D01*
X725277Y574472D01*
X726486Y576047D01*
X727246Y577882D01*
X727338Y578580D01*
D02*
G37*
G36*
X690000Y603630D02*
X686366Y603272D01*
X682871Y602212D01*
X679650Y600490D01*
X676827Y598173D01*
X674510Y595350D01*
X672788Y592129D01*
X671728Y588634D01*
X671370Y585000D01*
X671728Y581366D01*
X672788Y577871D01*
X674510Y574650D01*
X676827Y571827D01*
X679650Y569510D01*
X682871Y567788D01*
X686366Y566728D01*
X690000Y566370D01*
X693634Y566728D01*
X697129Y567788D01*
X700350Y569510D01*
X703173Y571827D01*
X705490Y574650D01*
X707212Y577871D01*
X708272Y581366D01*
X708630Y585000D01*
X708272Y588634D01*
X707212Y592129D01*
X705490Y595350D01*
X703173Y598173D01*
X700350Y600490D01*
X697129Y602212D01*
X693634Y603272D01*
X690000Y603630D01*
D02*
G37*
G36*
X648780Y572230D02*
X642612D01*
X642704Y571531D01*
X643464Y569697D01*
X644672Y568122D01*
X646247Y566914D01*
X648082Y566154D01*
X648780Y566062D01*
Y572230D01*
D02*
G37*
G36*
X657488D02*
X651320D01*
Y566062D01*
X652018Y566154D01*
X653852Y566914D01*
X655427Y568122D01*
X656636Y569697D01*
X657396Y571531D01*
X657488Y572230D01*
D02*
G37*
G36*
X464740Y604090D02*
X441660D01*
Y581010D01*
X464740D01*
Y604090D01*
D02*
G37*
G36*
X496490D02*
X473410D01*
Y581010D01*
X496490D01*
Y604090D01*
D02*
G37*
G36*
X427800Y604189D02*
X424787Y603793D01*
X421980Y602630D01*
X419569Y600780D01*
X417720Y598370D01*
X416557Y595562D01*
X416160Y592550D01*
X416557Y589537D01*
X417720Y586730D01*
X419569Y584319D01*
X421980Y582470D01*
X424787Y581307D01*
X427800Y580910D01*
X430812Y581307D01*
X433620Y582470D01*
X436030Y584319D01*
X437880Y586730D01*
X439043Y589537D01*
X439439Y592550D01*
X439043Y595562D01*
X437880Y598370D01*
X436030Y600780D01*
X433620Y602630D01*
X430812Y603793D01*
X427800Y604189D01*
D02*
G37*
G36*
X648780Y580938D02*
X648082Y580846D01*
X646247Y580086D01*
X644672Y578877D01*
X643464Y577302D01*
X642704Y575468D01*
X642612Y574770D01*
X648780D01*
Y580938D01*
D02*
G37*
G36*
X651320D02*
Y574770D01*
X657488D01*
X657396Y575468D01*
X656636Y577302D01*
X655427Y578877D01*
X653852Y580086D01*
X652018Y580846D01*
X651320Y580938D01*
D02*
G37*
%LPD*%
D18*
X698450Y431400D02*
Y448900D01*
X586550Y516350D02*
X599250Y503650D01*
X688150Y421100D02*
X698450Y431400D01*
X643700Y421100D02*
X688150D01*
X586550Y478250D02*
X643700Y421100D01*
X586550Y478250D02*
Y490950D01*
X599250Y478250D02*
Y503650D01*
Y478250D02*
X611950Y465550D01*
X669100D01*
D19*
X453200Y592550D02*
D03*
X484950D02*
D03*
D20*
X427800D02*
D03*
X535750Y465550D02*
D03*
X561150D02*
D03*
X535750Y516350D02*
D03*
Y490950D02*
D03*
X561150D02*
D03*
Y516350D02*
D03*
X510350Y592550D02*
D03*
D21*
X437500Y522700D02*
D03*
X487500D02*
D03*
D22*
X440000Y435000D02*
D03*
X690000Y585000D02*
D03*
D23*
X586550Y516350D02*
D03*
X669100Y465550D02*
D03*
X586550Y490950D02*
D03*
X698450Y448900D02*
D03*
X650050Y573500D02*
D03*
X576050Y607650D02*
D03*
X575300Y563950D02*
D03*
X719900Y579850D02*
D03*
X726250Y446500D02*
D03*
X624650Y456201D02*
D03*
M02*
