G04 Layer_Color=2752767*
%FSLAX44Y44*%
%MOMM*%
G71*
G01*
G75*
%ADD42C,0.1270*%
%ADD43C,0.1693*%
D42*
X448120Y587470D02*
Y597630D01*
X458280D01*
Y587470D01*
X448120D01*
X422720D02*
Y597630D01*
X432880D01*
Y587470D01*
X422720D01*
X530670Y460470D02*
Y470630D01*
X540830D01*
Y460470D01*
X530670D01*
X556070D02*
Y470630D01*
X566230D01*
Y460470D01*
X556070D01*
X530670Y511270D02*
Y521430D01*
X540830D01*
Y511270D01*
X530670D01*
Y485870D02*
Y496030D01*
X540830D01*
Y485870D01*
X530670D01*
X556070D02*
Y496030D01*
X566230D01*
Y485870D01*
X556070D01*
Y511270D02*
Y521430D01*
X566230D01*
Y511270D01*
X556070D01*
X479870Y587470D02*
Y597630D01*
X490030D01*
Y587470D01*
X479870D01*
X505270D02*
Y597630D01*
X515430D01*
Y587470D01*
X505270D01*
X440000Y429920D02*
X434920Y440080D01*
X445080D01*
X440000Y429920D01*
X690000Y579920D02*
X684920Y590080D01*
X695080D01*
X690000Y579920D01*
X586550Y511270D02*
X589090Y513810D01*
X591630D01*
X589090Y516350D01*
X591630Y518890D01*
X589090D01*
X586550Y521430D01*
X584010Y518890D01*
X581470D01*
X584010Y516350D01*
X581470Y513810D01*
X584010D01*
X586550Y511270D01*
X669100Y460470D02*
X671640Y463010D01*
X674180D01*
X671640Y465550D01*
X674180Y468090D01*
X671640D01*
X669100Y470630D01*
X666560Y468090D01*
X664020D01*
X666560Y465550D01*
X664020Y463010D01*
X666560D01*
X669100Y460470D01*
X586550Y485870D02*
X589090Y488410D01*
X591630D01*
X589090Y490950D01*
X591630Y493490D01*
X589090D01*
X586550Y496030D01*
X584010Y493490D01*
X581470D01*
X584010Y490950D01*
X581470Y488410D01*
X584010D01*
X586550Y485870D01*
X698450Y443820D02*
X700990Y446360D01*
X703530D01*
X700990Y448900D01*
X703530Y451440D01*
X700990D01*
X698450Y453980D01*
X695910Y451440D01*
X693370D01*
X695910Y448900D01*
X693370Y446360D01*
X695910D01*
X698450Y443820D01*
X650050Y568420D02*
X652590Y570960D01*
X655130D01*
X652590Y573500D01*
X655130Y576040D01*
X652590D01*
X650050Y578580D01*
X647510Y576040D01*
X644970D01*
X647510Y573500D01*
X644970Y570960D01*
X647510D01*
X650050Y568420D01*
X576050Y602570D02*
X578590Y605110D01*
X581130D01*
X578590Y607650D01*
X581130Y610190D01*
X578590D01*
X576050Y612730D01*
X573510Y610190D01*
X570970D01*
X573510Y607650D01*
X570970Y605110D01*
X573510D01*
X576050Y602570D01*
X575300Y558870D02*
X577840Y561410D01*
X580380D01*
X577840Y563950D01*
X580380Y566490D01*
X577840D01*
X575300Y569030D01*
X572760Y566490D01*
X570220D01*
X572760Y563950D01*
X570220Y561410D01*
X572760D01*
X575300Y558870D01*
X719900Y574770D02*
X722440Y577310D01*
X724980D01*
X722440Y579850D01*
X724980Y582390D01*
X722440D01*
X719900Y584930D01*
X717360Y582390D01*
X714820D01*
X717360Y579850D01*
X714820Y577310D01*
X717360D01*
X719900Y574770D01*
X726250Y441420D02*
X728790Y443960D01*
X731330D01*
X728790Y446500D01*
X731330Y449040D01*
X728790D01*
X726250Y451580D01*
X723710Y449040D01*
X721170D01*
X723710Y446500D01*
X721170Y443960D01*
X723710D01*
X726250Y441420D01*
X624650Y451121D02*
X627190Y453661D01*
X629730D01*
X627190Y456201D01*
X629730Y458741D01*
X627190D01*
X624650Y461281D01*
X622110Y458741D01*
X619570D01*
X622110Y456201D01*
X619570Y453661D01*
X622110D01*
X624650Y451121D01*
D43*
X442580Y522700D02*
G03*
X442580Y522700I-5080J0D01*
G01*
X492580D02*
G03*
X492580Y522700I-5080J0D01*
G01*
M02*
