G04 Layer_Color=20142*
%FSLAX44Y44*%
%MOMM*%
G71*
G01*
G75*
%ADD29R,2.0032X0.8032*%
%ADD30R,1.0032X0.4532*%
%ADD31R,1.2032X1.9032*%
%ADD32R,1.5532X1.3532*%
%ADD33R,1.2532X1.6532*%
%ADD34R,2.7032X1.9032*%
%ADD35O,0.8032X2.4032*%
%ADD36R,1.6532X1.2532*%
%ADD37R,2.0032X2.0032*%
%ADD38C,2.0032*%
%ADD39C,1.8032*%
%ADD40C,3.4032*%
%ADD41C,1.2032*%
D29*
X558450Y544950D02*
D03*
Y563950D02*
D03*
X538450Y554450D02*
D03*
X558450Y589400D02*
D03*
Y608400D02*
D03*
X538450Y598900D02*
D03*
D30*
X636600Y470750D02*
D03*
Y475750D02*
D03*
Y480750D02*
D03*
Y485750D02*
D03*
X612700Y470750D02*
D03*
Y475750D02*
D03*
Y480750D02*
D03*
Y485750D02*
D03*
D31*
X624650Y478250D02*
D03*
D32*
X656400Y431400D02*
D03*
Y448900D02*
D03*
X719900Y507600D02*
D03*
Y525100D02*
D03*
X618300Y607650D02*
D03*
Y590150D02*
D03*
X592900D02*
D03*
Y607650D02*
D03*
X618300Y563200D02*
D03*
Y545700D02*
D03*
X592900D02*
D03*
Y563200D02*
D03*
X681800Y431400D02*
D03*
Y448900D02*
D03*
D33*
X615400Y503650D02*
D03*
X633900D02*
D03*
X431250Y560800D02*
D03*
X449750D02*
D03*
D34*
X482500Y478250D02*
D03*
X442500D02*
D03*
D35*
X694500Y550350D02*
D03*
X681800D02*
D03*
X669100D02*
D03*
X656400D02*
D03*
X694500Y482350D02*
D03*
X681800D02*
D03*
X669100D02*
D03*
X656400D02*
D03*
D36*
X719900Y545200D02*
D03*
Y563700D02*
D03*
Y487500D02*
D03*
Y469000D02*
D03*
D37*
X453200Y592550D02*
D03*
X484950D02*
D03*
D38*
X427800D02*
D03*
X535750Y465550D02*
D03*
X561150D02*
D03*
X535750Y516350D02*
D03*
Y490950D02*
D03*
X561150D02*
D03*
Y516350D02*
D03*
X510350Y592550D02*
D03*
D39*
X437500Y522700D02*
D03*
X487500D02*
D03*
D40*
X440000Y435000D02*
D03*
X690000Y585000D02*
D03*
D41*
X586550Y516350D02*
D03*
X669100Y465550D02*
D03*
X586550Y490950D02*
D03*
X698450Y448900D02*
D03*
X650050Y573500D02*
D03*
X576050Y607650D02*
D03*
X575300Y563950D02*
D03*
X719900Y579850D02*
D03*
X726250Y446500D02*
D03*
X624650Y456201D02*
D03*
M02*
