G04 Layer_Physical_Order=1*
G04 Layer_Color=25308*
%FSLAX44Y44*%
%MOMM*%
G71*
G01*
G75*
%ADD10R,1.8000X0.6000*%
%ADD11R,0.8000X0.2500*%
%ADD12R,1.0000X1.7000*%
%ADD13R,1.3500X1.1500*%
%ADD14R,1.0500X1.4500*%
%ADD15R,2.5000X1.7000*%
%ADD16O,0.6000X2.2000*%
%ADD17R,1.4500X1.0500*%
%ADD18C,0.2500*%
%ADD19R,1.8000X1.8000*%
%ADD20C,1.8000*%
%ADD21C,1.6000*%
%ADD22C,3.2000*%
%ADD23C,1.0000*%
G36*
X531756Y412269D02*
X531904D01*
X532073Y412248D01*
X532454Y412185D01*
X532898Y412079D01*
X533321Y411910D01*
X533745Y411677D01*
X533914Y411550D01*
X534083Y411381D01*
X534125Y411338D01*
X534168Y411275D01*
X534210Y411211D01*
X534273Y411106D01*
X534337Y411000D01*
X534422Y410852D01*
X534506Y410682D01*
X534570Y410513D01*
X534654Y410302D01*
X534718Y410069D01*
X534781Y409815D01*
X534823Y409540D01*
X534866Y409244D01*
X534908Y408926D01*
Y408588D01*
Y402050D01*
X532771D01*
Y408228D01*
Y408249D01*
Y408270D01*
Y408334D01*
Y408419D01*
X532750Y408630D01*
X532708Y408884D01*
X532665Y409159D01*
X532581Y409455D01*
X532475Y409730D01*
X532327Y409963D01*
X532306Y409984D01*
X532242Y410048D01*
X532136Y410154D01*
X531988Y410259D01*
X531798Y410344D01*
X531565Y410450D01*
X531269Y410513D01*
X530952Y410534D01*
X530825D01*
X530740Y410513D01*
X530528Y410492D01*
X530253Y410429D01*
X529957Y410344D01*
X529661Y410196D01*
X529365Y410005D01*
X529132Y409752D01*
X529111Y409709D01*
X529047Y409603D01*
X528942Y409413D01*
X528857Y409159D01*
X528751Y408820D01*
X528645Y408419D01*
X528582Y407932D01*
X528561Y407361D01*
Y402050D01*
X526403D01*
Y408228D01*
Y408249D01*
Y408270D01*
Y408334D01*
Y408419D01*
X526381Y408630D01*
X526339Y408884D01*
X526297Y409159D01*
X526212Y409455D01*
X526106Y409730D01*
X525958Y409963D01*
X525937Y409984D01*
X525874Y410048D01*
X525768Y410154D01*
X525641Y410259D01*
X525451Y410344D01*
X525218Y410450D01*
X524921Y410513D01*
X524604Y410534D01*
X524477D01*
X524393Y410513D01*
X524181Y410492D01*
X523906Y410429D01*
X523610Y410344D01*
X523313Y410196D01*
X523017Y410005D01*
X522785Y409730D01*
X522763Y409688D01*
X522700Y409582D01*
X522658Y409498D01*
X522594Y409371D01*
X522552Y409244D01*
X522509Y409095D01*
X522446Y408926D01*
X522404Y408715D01*
X522340Y408503D01*
X522298Y408249D01*
X522277Y407995D01*
X522234Y407699D01*
X522213Y407382D01*
Y407043D01*
Y402050D01*
X520076D01*
Y412121D01*
X521748D01*
X522044Y410788D01*
X522150D01*
X522171Y410830D01*
X522234Y410915D01*
X522319Y411042D01*
X522467Y411190D01*
X522636Y411381D01*
X522848Y411550D01*
X523081Y411740D01*
X523356Y411888D01*
X523398Y411910D01*
X523504Y411952D01*
X523652Y412015D01*
X523885Y412100D01*
X524139Y412164D01*
X524435Y412227D01*
X524773Y412269D01*
X525112Y412290D01*
X525323D01*
X525493Y412269D01*
X525683Y412248D01*
X525895Y412206D01*
X526381Y412100D01*
X526635Y412015D01*
X526889Y411910D01*
X527143Y411783D01*
X527397Y411613D01*
X527630Y411444D01*
X527841Y411232D01*
X528032Y410979D01*
X528201Y410704D01*
X528349D01*
X528370Y410746D01*
X528434Y410830D01*
X528540Y410957D01*
X528666Y411127D01*
X528857Y411317D01*
X529068Y411508D01*
X529322Y411698D01*
X529598Y411867D01*
X529640Y411888D01*
X529746Y411931D01*
X529915Y411994D01*
X530126Y412079D01*
X530401Y412164D01*
X530719Y412227D01*
X531078Y412269D01*
X531459Y412290D01*
X531629D01*
X531756Y412269D01*
D02*
G37*
G36*
X551644Y402050D02*
X549973D01*
X549592Y403340D01*
X549507D01*
X549486Y403319D01*
X549465Y403277D01*
X549402Y403214D01*
X549317Y403108D01*
X549211Y403002D01*
X549084Y402875D01*
X548915Y402748D01*
X548746Y402600D01*
X548534Y402473D01*
X548322Y402325D01*
X548069Y402198D01*
X547794Y402092D01*
X547497Y401986D01*
X547180Y401923D01*
X546841Y401881D01*
X546482Y401859D01*
X546291D01*
X546164Y401881D01*
X546016Y401902D01*
X545826Y401923D01*
X545403Y402029D01*
X544937Y402198D01*
X544683Y402304D01*
X544450Y402431D01*
X544197Y402579D01*
X543964Y402769D01*
X543752Y402981D01*
X543541Y403214D01*
X543520Y403235D01*
X543498Y403277D01*
X543435Y403362D01*
X543372Y403467D01*
X543287Y403616D01*
X543202Y403785D01*
X543118Y403975D01*
X543012Y404208D01*
X542906Y404462D01*
X542821Y404758D01*
X542737Y405075D01*
X542652Y405414D01*
X542589Y405774D01*
X542525Y406176D01*
X542504Y406599D01*
X542483Y407043D01*
Y407064D01*
Y407149D01*
Y407276D01*
X542504Y407445D01*
X542525Y407657D01*
X542546Y407890D01*
X542567Y408165D01*
X542610Y408461D01*
X542737Y409074D01*
X542948Y409709D01*
X543054Y410027D01*
X543202Y410344D01*
X543372Y410619D01*
X543562Y410894D01*
X543583Y410915D01*
X543604Y410957D01*
X543668Y411021D01*
X543752Y411106D01*
X543879Y411211D01*
X544006Y411338D01*
X544154Y411465D01*
X544345Y411592D01*
X544535Y411719D01*
X544768Y411846D01*
X545001Y411973D01*
X545276Y412079D01*
X545551Y412164D01*
X545847Y412227D01*
X546185Y412269D01*
X546524Y412290D01*
X546715D01*
X546841Y412269D01*
X547011Y412248D01*
X547201Y412206D01*
X547645Y412100D01*
X547899Y412037D01*
X548132Y411931D01*
X548386Y411804D01*
X548640Y411677D01*
X548894Y411486D01*
X549127Y411296D01*
X549338Y411063D01*
X549550Y410809D01*
X549655D01*
Y410830D01*
Y410852D01*
X549634Y410979D01*
X549613Y411190D01*
X549592Y411423D01*
X549550Y411698D01*
X549529Y411994D01*
X549507Y412269D01*
Y412523D01*
Y416205D01*
X551644D01*
Y402050D01*
D02*
G37*
G36*
X504969D02*
X502790D01*
Y408059D01*
X496633D01*
Y402050D01*
X494475D01*
Y415358D01*
X496633D01*
Y409921D01*
X502790D01*
Y415358D01*
X504969D01*
Y402050D01*
D02*
G37*
G36*
X582916Y412269D02*
X583276Y412248D01*
X583445Y412227D01*
X583614Y412185D01*
X583403Y410196D01*
X583382D01*
X583318Y410217D01*
X583233Y410238D01*
X583107Y410259D01*
X582958D01*
X582810Y410280D01*
X582451Y410302D01*
X582324D01*
X582239Y410280D01*
X582006Y410259D01*
X581710Y410196D01*
X581372Y410090D01*
X581033Y409942D01*
X580673Y409730D01*
X580356Y409455D01*
X580314Y409413D01*
X580229Y409307D01*
X580102Y409117D01*
X579975Y408884D01*
X579827Y408567D01*
X579700Y408207D01*
X579616Y407784D01*
X579573Y407297D01*
Y402050D01*
X577436D01*
Y412121D01*
X579108D01*
X579383Y410323D01*
X579488D01*
Y410344D01*
X579510Y410365D01*
X579573Y410471D01*
X579700Y410640D01*
X579848Y410852D01*
X580039Y411084D01*
X580250Y411317D01*
X580504Y411550D01*
X580800Y411762D01*
X580843Y411783D01*
X580948Y411846D01*
X581096Y411931D01*
X581329Y412037D01*
X581583Y412121D01*
X581879Y412206D01*
X582197Y412269D01*
X582535Y412290D01*
X582768D01*
X582916Y412269D01*
D02*
G37*
G36*
X564170Y416289D02*
X564445Y416268D01*
X564784Y416226D01*
X565164Y416141D01*
X565566Y416057D01*
X565968Y415930D01*
X565418Y414300D01*
X565376Y414322D01*
X565291Y414343D01*
X565122Y414385D01*
X564932Y414449D01*
X564699Y414491D01*
X564445Y414533D01*
X564170Y414554D01*
X563895Y414576D01*
X563768D01*
X563641Y414554D01*
X563493Y414512D01*
X563324Y414470D01*
X563154Y414385D01*
X562985Y414258D01*
X562837Y414110D01*
X562816Y414089D01*
X562795Y414025D01*
X562731Y413920D01*
X562668Y413772D01*
X562604Y413581D01*
X562562Y413348D01*
X562520Y413073D01*
X562499Y412756D01*
Y412121D01*
X564974D01*
Y410492D01*
X562499D01*
Y402050D01*
X560362D01*
Y410492D01*
X558711D01*
Y411486D01*
X560362Y412142D01*
Y412798D01*
Y412819D01*
Y412883D01*
Y412967D01*
X560383Y413094D01*
Y413243D01*
X560404Y413412D01*
X560467Y413793D01*
X560573Y414216D01*
X560700Y414660D01*
X560912Y415083D01*
X561039Y415274D01*
X561187Y415443D01*
X561229Y415485D01*
X561356Y415570D01*
X561546Y415718D01*
X561821Y415887D01*
X562181Y416035D01*
X562625Y416184D01*
X563154Y416268D01*
X563747Y416311D01*
X563937D01*
X564170Y416289D01*
D02*
G37*
G36*
X731763Y452719D02*
X731013Y452349D01*
X730052Y453086D01*
X728218Y453846D01*
X727520Y453938D01*
Y446500D01*
Y439062D01*
X728218Y439154D01*
X730052Y439914D01*
X731013Y440651D01*
X731763Y440281D01*
Y403237D01*
X625415D01*
Y420121D01*
X490647D01*
Y403237D01*
X403237D01*
Y616763D01*
X731763D01*
Y452719D01*
D02*
G37*
G36*
X539161Y415951D02*
X539288Y415930D01*
X539436Y415887D01*
X539584Y415845D01*
X539711Y415760D01*
X539838Y415655D01*
X539859Y415633D01*
X539880Y415591D01*
X539944Y415528D01*
X540007Y415422D01*
X540050Y415295D01*
X540113Y415147D01*
X540134Y414977D01*
X540155Y414766D01*
Y414745D01*
Y414681D01*
X540134Y414576D01*
X540113Y414449D01*
X540071Y414322D01*
X540028Y414174D01*
X539944Y414025D01*
X539838Y413899D01*
X539817Y413877D01*
X539775Y413856D01*
X539711Y413814D01*
X539627Y413750D01*
X539500Y413687D01*
X539351Y413645D01*
X539182Y413623D01*
X538971Y413602D01*
X538886D01*
X538780Y413623D01*
X538653Y413645D01*
X538357Y413729D01*
X538209Y413793D01*
X538082Y413899D01*
X538061Y413920D01*
X538040Y413962D01*
X537976Y414025D01*
X537934Y414131D01*
X537870Y414258D01*
X537807Y414406D01*
X537786Y414576D01*
X537765Y414766D01*
Y414787D01*
Y414851D01*
X537786Y414956D01*
X537807Y415083D01*
X537849Y415231D01*
X537892Y415379D01*
X537976Y415528D01*
X538082Y415655D01*
X538103Y415676D01*
X538145Y415697D01*
X538209Y415760D01*
X538315Y415824D01*
X538442Y415866D01*
X538590Y415930D01*
X538759Y415951D01*
X538971Y415972D01*
X539055D01*
X539161Y415951D01*
D02*
G37*
G36*
X555982D02*
X556109Y415930D01*
X556257Y415887D01*
X556405Y415845D01*
X556532Y415760D01*
X556659Y415655D01*
X556680Y415633D01*
X556701Y415591D01*
X556765Y415528D01*
X556828Y415422D01*
X556870Y415295D01*
X556934Y415147D01*
X556955Y414977D01*
X556976Y414766D01*
Y414745D01*
Y414681D01*
X556955Y414576D01*
X556934Y414449D01*
X556892Y414322D01*
X556849Y414174D01*
X556765Y414025D01*
X556659Y413899D01*
X556638Y413877D01*
X556595Y413856D01*
X556532Y413814D01*
X556447Y413750D01*
X556320Y413687D01*
X556172Y413645D01*
X556003Y413623D01*
X555791Y413602D01*
X555707D01*
X555601Y413623D01*
X555474Y413645D01*
X555178Y413729D01*
X555030Y413793D01*
X554903Y413899D01*
X554882Y413920D01*
X554860Y413962D01*
X554797Y414025D01*
X554755Y414131D01*
X554691Y414258D01*
X554628Y414406D01*
X554607Y414576D01*
X554585Y414766D01*
Y414787D01*
Y414851D01*
X554607Y414956D01*
X554628Y415083D01*
X554670Y415231D01*
X554712Y415379D01*
X554797Y415528D01*
X554903Y415655D01*
X554924Y415676D01*
X554966Y415697D01*
X555030Y415760D01*
X555135Y415824D01*
X555262Y415866D01*
X555410Y415930D01*
X555580Y415951D01*
X555791Y415972D01*
X555876D01*
X555982Y415951D01*
D02*
G37*
G36*
X594913Y402050D02*
X592607D01*
X588798Y412121D01*
X591041D01*
X593093Y406260D01*
Y406239D01*
X593114Y406197D01*
X593135Y406112D01*
X593178Y406007D01*
X593220Y405880D01*
X593262Y405753D01*
X593368Y405414D01*
X593474Y405033D01*
X593580Y404631D01*
X593665Y404229D01*
X593728Y403870D01*
X593791D01*
Y403912D01*
X593813Y403996D01*
X593855Y404166D01*
X593897Y404420D01*
X593940Y404568D01*
X593982Y404737D01*
X594045Y404927D01*
X594088Y405160D01*
X594172Y405393D01*
X594236Y405668D01*
X594320Y405943D01*
X594426Y406260D01*
X596479Y412121D01*
X598764D01*
X594913Y402050D01*
D02*
G37*
G36*
X540028D02*
X537892D01*
Y412121D01*
X540028D01*
Y402050D01*
D02*
G37*
G36*
X556849D02*
X554712D01*
Y412121D01*
X556849D01*
Y402050D01*
D02*
G37*
G36*
X612199Y404547D02*
X612347Y404525D01*
X612517Y404483D01*
X612686Y404398D01*
X612834Y404314D01*
X612982Y404187D01*
X613003Y404166D01*
X613045Y404123D01*
X613088Y404039D01*
X613151Y403933D01*
X613215Y403785D01*
X613278Y403616D01*
X613299Y403425D01*
X613321Y403192D01*
Y403171D01*
Y403087D01*
X613299Y402960D01*
X613278Y402812D01*
X613236Y402642D01*
X613172Y402473D01*
X613088Y402304D01*
X612961Y402156D01*
X612940Y402135D01*
X612897Y402092D01*
X612813Y402050D01*
X612707Y401986D01*
X612580Y401902D01*
X612389Y401859D01*
X612199Y401817D01*
X611966Y401796D01*
X611861D01*
X611734Y401817D01*
X611607Y401838D01*
X611437Y401881D01*
X611268Y401944D01*
X611120Y402029D01*
X610972Y402156D01*
X610951Y402177D01*
X610930Y402219D01*
X610866Y402304D01*
X610803Y402431D01*
X610739Y402579D01*
X610697Y402748D01*
X610654Y402960D01*
X610633Y403192D01*
Y403214D01*
Y403298D01*
X610654Y403425D01*
X610676Y403573D01*
X610718Y403721D01*
X610782Y403891D01*
X610866Y404060D01*
X610972Y404208D01*
X610993Y404229D01*
X611035Y404272D01*
X611120Y404314D01*
X611226Y404398D01*
X611374Y404462D01*
X611543Y404504D01*
X611734Y404547D01*
X611966Y404568D01*
X612072D01*
X612199Y404547D01*
D02*
G37*
G36*
X571025Y412269D02*
X571194Y412248D01*
X571385Y412227D01*
X571596Y412185D01*
X571829Y412142D01*
X572337Y411994D01*
X572612Y411888D01*
X572866Y411783D01*
X573120Y411634D01*
X573374Y411465D01*
X573606Y411275D01*
X573839Y411063D01*
X573860Y411042D01*
X573882Y411000D01*
X573945Y410936D01*
X574030Y410852D01*
X574114Y410725D01*
X574199Y410577D01*
X574305Y410386D01*
X574432Y410196D01*
X574538Y409963D01*
X574643Y409730D01*
X574728Y409455D01*
X574813Y409159D01*
X574897Y408842D01*
X574961Y408482D01*
X574982Y408122D01*
X575003Y407741D01*
Y406599D01*
X568296D01*
Y406578D01*
Y406535D01*
Y406451D01*
X568317Y406366D01*
X568338Y406239D01*
X568359Y406091D01*
X568402Y405753D01*
X568507Y405393D01*
X568634Y405012D01*
X568825Y404652D01*
X569079Y404335D01*
X569121Y404293D01*
X569227Y404208D01*
X569375Y404081D01*
X569629Y403954D01*
X569925Y403806D01*
X570285Y403679D01*
X570687Y403594D01*
X571173Y403552D01*
X571512D01*
X571723Y403573D01*
X571977Y403594D01*
X572274Y403616D01*
X572845Y403700D01*
X572887D01*
X572972Y403742D01*
X573141Y403785D01*
X573331Y403827D01*
X573585Y403912D01*
X573860Y404018D01*
X574178Y404123D01*
X574495Y404272D01*
Y402537D01*
X574453Y402515D01*
X574368Y402473D01*
X574199Y402410D01*
X574008Y402325D01*
X573755Y402240D01*
X573501Y402156D01*
X573204Y402071D01*
X572908Y402008D01*
X572866D01*
X572760Y401986D01*
X572591Y401965D01*
X572379Y401944D01*
X572104Y401902D01*
X571808Y401881D01*
X571469Y401859D01*
X570856D01*
X570708Y401881D01*
X570496Y401902D01*
X570285Y401923D01*
X570031Y401965D01*
X569756Y402029D01*
X569163Y402198D01*
X568846Y402304D01*
X568550Y402431D01*
X568232Y402579D01*
X567957Y402769D01*
X567661Y402981D01*
X567407Y403214D01*
X567386Y403235D01*
X567344Y403277D01*
X567280Y403362D01*
X567196Y403467D01*
X567090Y403616D01*
X566984Y403785D01*
X566857Y403975D01*
X566751Y404208D01*
X566624Y404462D01*
X566497Y404737D01*
X566392Y405054D01*
X566286Y405393D01*
X566201Y405753D01*
X566138Y406155D01*
X566095Y406557D01*
X566074Y407001D01*
Y407022D01*
Y407107D01*
Y407234D01*
X566095Y407403D01*
X566116Y407615D01*
X566138Y407847D01*
X566180Y408122D01*
X566222Y408397D01*
X566370Y409032D01*
X566476Y409349D01*
X566603Y409667D01*
X566730Y409984D01*
X566899Y410302D01*
X567090Y410598D01*
X567301Y410873D01*
X567323Y410894D01*
X567365Y410936D01*
X567428Y411000D01*
X567534Y411106D01*
X567661Y411211D01*
X567809Y411317D01*
X567978Y411444D01*
X568190Y411592D01*
X568423Y411719D01*
X568677Y411846D01*
X568952Y411952D01*
X569248Y412079D01*
X569586Y412164D01*
X569925Y412227D01*
X570306Y412269D01*
X570687Y412290D01*
X570877D01*
X571025Y412269D01*
D02*
G37*
G36*
X605873Y402050D02*
X603736D01*
Y410640D01*
Y410661D01*
Y410704D01*
Y410788D01*
Y410894D01*
Y411021D01*
Y411169D01*
Y411508D01*
X603757Y411910D01*
Y412312D01*
X603778Y412714D01*
X603799Y413073D01*
X603757Y413031D01*
X603672Y412925D01*
X603503Y412777D01*
X603292Y412587D01*
X603270Y412565D01*
X603228Y412523D01*
X603101Y412439D01*
X602932Y412290D01*
X602805Y412185D01*
X602657Y412058D01*
X602509Y411931D01*
X602318Y411783D01*
X602085Y411592D01*
X601853Y411402D01*
X601578Y411169D01*
X601260Y410915D01*
X600181Y412269D01*
X604095Y415358D01*
X605873D01*
Y402050D01*
D02*
G37*
G36*
X517029D02*
X515337D01*
X515041Y403362D01*
X514935D01*
X514914Y403340D01*
X514850Y403235D01*
X514744Y403108D01*
X514618Y402960D01*
X514427Y402769D01*
X514216Y402579D01*
X513962Y402410D01*
X513665Y402240D01*
X513623Y402219D01*
X513517Y402177D01*
X513348Y402113D01*
X513115Y402050D01*
X512840Y401986D01*
X512523Y401923D01*
X512163Y401881D01*
X511782Y401859D01*
X511613D01*
X511486Y401881D01*
X511338D01*
X511169Y401902D01*
X510767Y401965D01*
X510322Y402092D01*
X509857Y402240D01*
X509434Y402473D01*
X509243Y402600D01*
X509053Y402769D01*
Y402790D01*
X509011Y402812D01*
X508968Y402875D01*
X508905Y402938D01*
X508841Y403044D01*
X508757Y403150D01*
X508693Y403298D01*
X508609Y403446D01*
X508524Y403637D01*
X508439Y403848D01*
X508355Y404060D01*
X508291Y404314D01*
X508228Y404589D01*
X508185Y404864D01*
X508164Y405181D01*
X508143Y405520D01*
Y412121D01*
X510301D01*
Y405901D01*
Y405880D01*
Y405858D01*
Y405795D01*
Y405710D01*
X510322Y405499D01*
X510365Y405245D01*
X510407Y404970D01*
X510492Y404674D01*
X510619Y404398D01*
X510767Y404166D01*
X510788Y404145D01*
X510851Y404081D01*
X510978Y403975D01*
X511147Y403891D01*
X511338Y403785D01*
X511613Y403679D01*
X511909Y403616D01*
X512269Y403594D01*
X512396D01*
X512481Y403616D01*
X512734Y403637D01*
X513009Y403700D01*
X513327Y403785D01*
X513665Y403933D01*
X513962Y404123D01*
X514237Y404398D01*
X514258Y404441D01*
X514342Y404547D01*
X514385Y404652D01*
X514448Y404758D01*
X514491Y404885D01*
X514554Y405033D01*
X514618Y405202D01*
X514681Y405414D01*
X514723Y405626D01*
X514766Y405880D01*
X514808Y406133D01*
X514850Y406430D01*
X514871Y406747D01*
Y407085D01*
Y412121D01*
X517029D01*
Y402050D01*
D02*
G37*
G36*
X621636D02*
X619499D01*
Y410640D01*
Y410661D01*
Y410704D01*
Y410788D01*
Y410894D01*
Y411021D01*
Y411169D01*
Y411508D01*
X619520Y411910D01*
Y412312D01*
X619541Y412714D01*
X619562Y413073D01*
X619520Y413031D01*
X619435Y412925D01*
X619266Y412777D01*
X619054Y412587D01*
X619033Y412565D01*
X618991Y412523D01*
X618864Y412439D01*
X618695Y412290D01*
X618568Y412185D01*
X618420Y412058D01*
X618271Y411931D01*
X618081Y411783D01*
X617848Y411592D01*
X617616Y411402D01*
X617341Y411169D01*
X617023Y410915D01*
X615944Y412269D01*
X619858Y415358D01*
X621636D01*
Y402050D01*
D02*
G37*
%LPC*%
G36*
X625920Y463639D02*
Y457471D01*
X632088D01*
X631996Y458170D01*
X631236Y460004D01*
X630027Y461579D01*
X628452Y462787D01*
X626618Y463547D01*
X625920Y463639D01*
D02*
G37*
G36*
X729690Y476790D02*
X721170D01*
Y470270D01*
X729690D01*
Y476790D01*
D02*
G37*
G36*
X623380Y463639D02*
X622682Y463547D01*
X620847Y462787D01*
X619272Y461579D01*
X618064Y460004D01*
X617304Y458170D01*
X617212Y457471D01*
X623380D01*
Y463639D01*
D02*
G37*
G36*
X611430Y469480D02*
X606160D01*
Y466960D01*
X611430D01*
Y469480D01*
D02*
G37*
G36*
X537020Y477022D02*
Y466820D01*
X547222D01*
X546993Y468562D01*
X545830Y471370D01*
X543980Y473780D01*
X541570Y475630D01*
X538762Y476793D01*
X537020Y477022D01*
D02*
G37*
G36*
X669100Y495998D02*
X666938Y495568D01*
X665106Y494344D01*
X663881Y492511D01*
X663451Y490350D01*
Y474350D01*
X663881Y472188D01*
X664384Y471436D01*
X663722Y470928D01*
X662514Y469352D01*
X661754Y467518D01*
X661495Y465550D01*
X661754Y463582D01*
X662514Y461747D01*
X663722Y460172D01*
X665297Y458964D01*
X667132Y458204D01*
X669100Y457945D01*
X671068Y458204D01*
X672902Y458964D01*
X674477Y460172D01*
X675686Y461747D01*
X676446Y463582D01*
X676705Y465550D01*
X676446Y467518D01*
X675686Y469352D01*
X674477Y470928D01*
X673815Y471436D01*
X674318Y472188D01*
X674748Y474350D01*
Y490350D01*
X674318Y492511D01*
X673094Y494344D01*
X671261Y495568D01*
X669100Y495998D01*
D02*
G37*
G36*
X724980Y445230D02*
X718812D01*
X718904Y444532D01*
X719664Y442697D01*
X720872Y441122D01*
X722447Y439914D01*
X724281Y439154D01*
X724980Y439062D01*
Y445230D01*
D02*
G37*
G36*
X547053Y410534D02*
X546947D01*
X546863Y410513D01*
X546651Y410492D01*
X546397Y410429D01*
X546122Y410302D01*
X545826Y410132D01*
X545551Y409921D01*
X545424Y409773D01*
X545297Y409603D01*
X545276Y409561D01*
X545212Y409434D01*
X545106Y409222D01*
X545001Y408947D01*
X544895Y408567D01*
X544789Y408122D01*
X544726Y407593D01*
X544704Y407001D01*
Y406980D01*
Y406937D01*
Y406832D01*
Y406726D01*
X544726Y406578D01*
Y406430D01*
X544768Y406049D01*
X544852Y405647D01*
X544937Y405224D01*
X545085Y404822D01*
X545276Y404462D01*
X545297Y404420D01*
X545382Y404335D01*
X545530Y404187D01*
X545720Y404039D01*
X545974Y403870D01*
X546270Y403721D01*
X546630Y403637D01*
X547053Y403594D01*
X547180D01*
X547265Y403616D01*
X547497Y403637D01*
X547794Y403679D01*
X548111Y403764D01*
X548428Y403891D01*
X548725Y404081D01*
X548978Y404314D01*
X548999Y404356D01*
X549084Y404462D01*
X549169Y404631D01*
X549296Y404885D01*
X549402Y405224D01*
X549507Y405647D01*
X549529Y405880D01*
X549571Y406133D01*
X549592Y406430D01*
Y406726D01*
Y407022D01*
Y407043D01*
Y407107D01*
Y407212D01*
Y407339D01*
X549571Y407487D01*
Y407678D01*
X549507Y408080D01*
X549444Y408524D01*
X549338Y408969D01*
X549190Y409392D01*
X549084Y409561D01*
X548978Y409730D01*
X548957Y409773D01*
X548873Y409857D01*
X548725Y409984D01*
X548513Y410132D01*
X548238Y410280D01*
X547899Y410407D01*
X547519Y410492D01*
X547053Y410534D01*
D02*
G37*
G36*
X570687Y410661D02*
X570517D01*
X570327Y410619D01*
X570094Y410577D01*
X569840Y410492D01*
X569565Y410386D01*
X569311Y410217D01*
X569058Y410005D01*
X569036Y409984D01*
X568952Y409878D01*
X568867Y409730D01*
X568740Y409540D01*
X568613Y409265D01*
X568486Y408947D01*
X568380Y408567D01*
X568317Y408143D01*
X572908D01*
Y408165D01*
Y408207D01*
Y408270D01*
X572887Y408355D01*
X572866Y408567D01*
X572824Y408842D01*
X572760Y409138D01*
X572633Y409455D01*
X572485Y409752D01*
X572295Y410005D01*
X572274Y410027D01*
X572189Y410111D01*
X572062Y410217D01*
X571872Y410344D01*
X571660Y410450D01*
X571385Y410555D01*
X571046Y410640D01*
X570687Y410661D01*
D02*
G37*
G36*
X547222Y464280D02*
X537020D01*
Y454077D01*
X538762Y454307D01*
X541570Y455470D01*
X543980Y457319D01*
X545830Y459730D01*
X546993Y462537D01*
X547222Y464280D01*
D02*
G37*
G36*
X632088Y454931D02*
X625920D01*
Y448763D01*
X626618Y448855D01*
X628452Y449615D01*
X630027Y450824D01*
X631236Y452399D01*
X631996Y454233D01*
X632088Y454931D01*
D02*
G37*
G36*
X623380D02*
X617212D01*
X617304Y454233D01*
X618064Y452399D01*
X619272Y450824D01*
X620847Y449615D01*
X622682Y448855D01*
X623380Y448763D01*
Y454931D01*
D02*
G37*
G36*
X561150Y502589D02*
X558137Y502193D01*
X555330Y501030D01*
X552919Y499180D01*
X551070Y496770D01*
X549907Y493962D01*
X549510Y490950D01*
X549907Y487937D01*
X551070Y485130D01*
X552919Y482719D01*
X555330Y480870D01*
X558137Y479707D01*
X561150Y479310D01*
X564162Y479707D01*
X566970Y480870D01*
X569380Y482719D01*
X571230Y485130D01*
X572040Y487086D01*
X580011D01*
X581172Y485572D01*
X582747Y484364D01*
X584581Y483604D01*
X586550Y483345D01*
X588518Y483604D01*
X590352Y484364D01*
X591927Y485572D01*
X593136Y487147D01*
X593896Y488982D01*
X594155Y490950D01*
X593896Y492918D01*
X593136Y494752D01*
X591927Y496328D01*
X590352Y497536D01*
X588518Y498296D01*
X586550Y498555D01*
X584581Y498296D01*
X582747Y497536D01*
X581172Y496328D01*
X580011Y494814D01*
X572040D01*
X571230Y496770D01*
X569380Y499180D01*
X566970Y501030D01*
X564162Y502193D01*
X561150Y502589D01*
D02*
G37*
G36*
X718630Y587288D02*
X717932Y587196D01*
X716097Y586436D01*
X714522Y585228D01*
X713314Y583652D01*
X712554Y581818D01*
X712462Y581120D01*
X718630D01*
Y587288D01*
D02*
G37*
G36*
X721170D02*
Y581120D01*
X727338D01*
X727246Y581818D01*
X726486Y583652D01*
X725277Y585228D01*
X723702Y586436D01*
X721868Y587196D01*
X721170Y587288D01*
D02*
G37*
G36*
X525750Y615464D02*
X446850D01*
X445371Y615170D01*
X444117Y614332D01*
X432768Y602983D01*
X430812Y603793D01*
X427800Y604189D01*
X424787Y603793D01*
X421980Y602630D01*
X419569Y600780D01*
X417720Y598370D01*
X416557Y595562D01*
X416160Y592550D01*
X416557Y589537D01*
X417720Y586730D01*
X419569Y584319D01*
X421980Y582470D01*
X423936Y581660D01*
Y570590D01*
X423460D01*
Y551010D01*
X439040D01*
Y570590D01*
X431664D01*
Y581660D01*
X433620Y582470D01*
X436030Y584319D01*
X437880Y586730D01*
X439043Y589537D01*
X439439Y592550D01*
X439043Y595562D01*
X438233Y597518D01*
X440967Y600252D01*
X441660Y599965D01*
Y581010D01*
X449336D01*
Y570590D01*
X441960D01*
Y551010D01*
X457540D01*
Y570590D01*
X457064D01*
Y581010D01*
X464740D01*
Y588686D01*
X473410D01*
Y581010D01*
X481086D01*
Y571750D01*
X441703Y532367D01*
X440251Y532969D01*
X437500Y533331D01*
X434748Y532969D01*
X432184Y531907D01*
X429983Y530217D01*
X428293Y528015D01*
X427231Y525451D01*
X426869Y522700D01*
X427231Y519948D01*
X428293Y517384D01*
X429983Y515183D01*
X432184Y513493D01*
X433636Y512892D01*
Y489290D01*
X427460D01*
Y467210D01*
X438636D01*
Y463550D01*
X438930Y462071D01*
X439767Y460817D01*
X447995Y452590D01*
X447548Y451988D01*
X447129Y452212D01*
X443634Y453272D01*
X440000Y453630D01*
X436366Y453272D01*
X432871Y452212D01*
X429650Y450490D01*
X426827Y448173D01*
X424510Y445350D01*
X422788Y442129D01*
X421728Y438634D01*
X421370Y435000D01*
X421728Y431366D01*
X422788Y427871D01*
X424510Y424650D01*
X426827Y421827D01*
X429650Y419510D01*
X432871Y417788D01*
X436366Y416728D01*
X440000Y416370D01*
X443634Y416728D01*
X447129Y417788D01*
X450350Y419510D01*
X453173Y421827D01*
X455490Y424650D01*
X457212Y427871D01*
X458272Y431366D01*
X458630Y435000D01*
X458272Y438634D01*
X457212Y442129D01*
X456988Y442548D01*
X457590Y442995D01*
X471917Y428667D01*
X473171Y427830D01*
X474650Y427536D01*
X647110D01*
Y423110D01*
X665690D01*
Y427536D01*
X672510D01*
Y423110D01*
X691090D01*
Y427536D01*
X704800D01*
X706279Y427830D01*
X707532Y428667D01*
X713107Y434242D01*
X713945Y435496D01*
X714239Y436975D01*
X714239Y436975D01*
Y460665D01*
X714239Y460665D01*
X714686Y461210D01*
X716036D01*
Y452850D01*
X716330Y451371D01*
X717167Y450117D01*
X718894Y448391D01*
X718812Y447770D01*
X724980D01*
Y453938D01*
X724359Y453856D01*
X723764Y454450D01*
Y461210D01*
X729690D01*
Y467730D01*
X719900D01*
Y469000D01*
X718630D01*
Y476790D01*
X711064D01*
Y479710D01*
X729690D01*
Y495290D01*
X723764D01*
Y499310D01*
X729190D01*
Y515890D01*
X710610D01*
Y499310D01*
X716036D01*
Y495290D01*
X710110D01*
Y490561D01*
X709617Y490232D01*
X709617Y490232D01*
X705599Y486214D01*
X700148D01*
Y490350D01*
X699718Y492511D01*
X698494Y494344D01*
X698364Y494431D01*
Y503650D01*
X698070Y505129D01*
X697232Y506382D01*
X697232Y506382D01*
X682297Y521318D01*
X682584Y522011D01*
X684975D01*
X686454Y522305D01*
X687707Y523142D01*
X697232Y532667D01*
X698070Y533921D01*
X698364Y535400D01*
Y538269D01*
X698494Y538356D01*
X699718Y540188D01*
X700148Y542350D01*
Y546486D01*
X703349D01*
X707367Y542467D01*
X708621Y541630D01*
X710100Y541336D01*
X710110Y540627D01*
Y537410D01*
X716036D01*
Y533390D01*
X710610D01*
Y516810D01*
X729190D01*
Y533390D01*
X723764D01*
Y537410D01*
X729690D01*
Y552990D01*
X710110D01*
Y551635D01*
X709417Y551348D01*
X707682Y553082D01*
X706429Y553920D01*
X704950Y554214D01*
X700148D01*
Y558350D01*
X699718Y560512D01*
X698494Y562344D01*
X696661Y563568D01*
X694500Y563998D01*
X692338Y563568D01*
X690506Y562344D01*
X689281Y560512D01*
X688851Y558350D01*
Y542350D01*
X689281Y540188D01*
X690506Y538356D01*
X690636Y538269D01*
Y537001D01*
X683374Y529739D01*
X672793D01*
X672439Y530401D01*
X672670Y530746D01*
X672964Y532225D01*
Y538269D01*
X673094Y538356D01*
X674318Y540188D01*
X674748Y542350D01*
Y558350D01*
X674318Y560512D01*
X673094Y562344D01*
X671261Y563568D01*
X669100Y563998D01*
X666938Y563568D01*
X665106Y562344D01*
X663881Y560512D01*
X663451Y558350D01*
Y542350D01*
X663881Y540188D01*
X665106Y538356D01*
X665236Y538269D01*
Y536089D01*
X657167D01*
X657093Y536839D01*
X658561Y537131D01*
X660394Y538356D01*
X661618Y540188D01*
X662048Y542350D01*
Y549080D01*
X650751D01*
Y542350D01*
X651031Y540944D01*
X650340Y540575D01*
X627590Y563325D01*
Y571490D01*
X609010D01*
Y554910D01*
X624584D01*
X624699Y554740D01*
X624301Y553990D01*
X609010D01*
Y548814D01*
X602190D01*
Y553990D01*
X583610D01*
Y548814D01*
X569990D01*
Y550490D01*
X549990D01*
Y558410D01*
X557180D01*
Y562680D01*
X546910D01*
Y559990D01*
X526910D01*
Y558314D01*
X519250D01*
X517771Y558020D01*
X516517Y557182D01*
X516517Y557182D01*
X510167Y550832D01*
X510167Y550832D01*
X491703Y532367D01*
X490251Y532969D01*
X487500Y533331D01*
X484748Y532969D01*
X482184Y531907D01*
X479983Y530217D01*
X478293Y528015D01*
X477231Y525451D01*
X476869Y522700D01*
X477231Y519948D01*
X478293Y517384D01*
X479983Y515183D01*
X482184Y513493D01*
X483636Y512892D01*
Y489290D01*
X467460D01*
Y467210D01*
X497540D01*
Y489290D01*
X491364D01*
Y512892D01*
X492815Y513493D01*
X495017Y515183D01*
X496707Y517384D01*
X497769Y519948D01*
X498131Y522700D01*
X497769Y525451D01*
X497167Y526903D01*
X515632Y545367D01*
X515632Y545367D01*
X520850Y550586D01*
X526910D01*
Y548910D01*
X546910D01*
Y539410D01*
X569990D01*
Y541086D01*
X583610D01*
Y537410D01*
X602190D01*
Y541086D01*
X609010D01*
Y537410D01*
X627590D01*
Y551415D01*
X628283Y551702D01*
X649553Y530432D01*
X649266Y529739D01*
X602425D01*
X600946Y529445D01*
X599692Y528607D01*
X598855Y527354D01*
X598561Y525875D01*
Y476513D01*
X591461Y469414D01*
X572040D01*
X571230Y471370D01*
X569380Y473780D01*
X566970Y475630D01*
X564162Y476793D01*
X561150Y477189D01*
X558137Y476793D01*
X555330Y475630D01*
X552919Y473780D01*
X551070Y471370D01*
X549907Y468562D01*
X549510Y465550D01*
X549907Y462537D01*
X551070Y459730D01*
X552919Y457319D01*
X555330Y455470D01*
X558137Y454307D01*
X561150Y453910D01*
X564162Y454307D01*
X566970Y455470D01*
X569380Y457319D01*
X571230Y459730D01*
X572040Y461686D01*
X593062D01*
X594541Y461980D01*
X595794Y462817D01*
X605157Y472180D01*
X605157Y472180D01*
X605410Y472558D01*
X606160Y472331D01*
Y472020D01*
X612700D01*
Y470750D01*
X613970D01*
Y466960D01*
X619240D01*
Y467210D01*
X623380D01*
Y478250D01*
X625920D01*
Y467210D01*
X630060D01*
Y466960D01*
X636227D01*
X636600Y466886D01*
X642550D01*
X642923Y466960D01*
X643140D01*
Y467003D01*
X644029Y467180D01*
X645282Y468017D01*
X650332Y473067D01*
X651050Y472850D01*
X651181Y472188D01*
X652406Y470356D01*
X652536Y470269D01*
Y457190D01*
X647110D01*
Y452764D01*
X642925D01*
X642925Y452764D01*
X641446Y452470D01*
X641030Y452192D01*
X640192Y451632D01*
X640192Y451632D01*
X632574Y444014D01*
X523739D01*
Y462623D01*
X524489Y462673D01*
X524507Y462537D01*
X525670Y459730D01*
X527519Y457319D01*
X529930Y455470D01*
X532737Y454307D01*
X534480Y454077D01*
Y465550D01*
Y477022D01*
X532737Y476793D01*
X529930Y475630D01*
X527519Y473780D01*
X525670Y471370D01*
X524507Y468562D01*
X524489Y468427D01*
X523739Y468476D01*
Y473474D01*
X530782Y480517D01*
X532737Y479707D01*
X535750Y479310D01*
X538762Y479707D01*
X541570Y480870D01*
X543980Y482719D01*
X545830Y485130D01*
X546993Y487937D01*
X547389Y490950D01*
X546993Y493962D01*
X545830Y496770D01*
X543980Y499180D01*
X541570Y501030D01*
X538762Y502193D01*
X535750Y502589D01*
X532737Y502193D01*
X529930Y501030D01*
X527519Y499180D01*
X525670Y496770D01*
X524507Y493962D01*
X524110Y490950D01*
X524507Y487937D01*
X525317Y485982D01*
X517142Y477807D01*
X516305Y476554D01*
X516011Y475075D01*
Y440150D01*
X516305Y438671D01*
X517142Y437417D01*
X518396Y436580D01*
X519875Y436286D01*
X634175D01*
X635654Y436580D01*
X636907Y437417D01*
X644526Y445036D01*
X647110D01*
Y440610D01*
X665690D01*
Y457190D01*
X660264D01*
Y470269D01*
X660394Y470356D01*
X661618Y472188D01*
X662048Y474350D01*
Y490350D01*
X661618Y492511D01*
X660394Y494344D01*
X658561Y495568D01*
X656400Y495998D01*
X654994Y495719D01*
X654625Y496410D01*
X658000Y499786D01*
X673849D01*
X677936Y495699D01*
Y494431D01*
X677806Y494344D01*
X676581Y492511D01*
X676151Y490350D01*
Y474350D01*
X676581Y472188D01*
X677806Y470356D01*
X677936Y470269D01*
Y457190D01*
X672510D01*
Y440610D01*
X691090D01*
Y445036D01*
X691911D01*
X693072Y443522D01*
X694647Y442314D01*
X696481Y441554D01*
X698450Y441295D01*
X700418Y441554D01*
X702252Y442314D01*
X703827Y443522D01*
X705036Y445097D01*
X705796Y446931D01*
X706511Y446784D01*
Y438576D01*
X703199Y435264D01*
X691090D01*
Y439690D01*
X672510D01*
Y435264D01*
X665690D01*
Y439690D01*
X647110D01*
Y435264D01*
X514214D01*
Y489349D01*
X530782Y505917D01*
X532737Y505107D01*
X535750Y504710D01*
X538762Y505107D01*
X541570Y506270D01*
X543980Y508120D01*
X545830Y510530D01*
X546993Y513337D01*
X547389Y516350D01*
X546993Y519362D01*
X545830Y522170D01*
X543980Y524580D01*
X541570Y526430D01*
X538762Y527593D01*
X535750Y527989D01*
X532737Y527593D01*
X529930Y526430D01*
X527519Y524580D01*
X525670Y522170D01*
X524507Y519362D01*
X524110Y516350D01*
X524507Y513337D01*
X525317Y511382D01*
X507617Y493682D01*
X506780Y492429D01*
X506486Y490950D01*
Y435264D01*
X476250D01*
X446364Y465150D01*
Y467210D01*
X457540D01*
Y489290D01*
X441364D01*
Y512892D01*
X442815Y513493D01*
X445017Y515183D01*
X446707Y517384D01*
X447769Y519948D01*
X448131Y522700D01*
X447769Y525451D01*
X447168Y526903D01*
X487682Y567417D01*
X487682Y567417D01*
X488520Y568671D01*
X488814Y570150D01*
Y581010D01*
X496490D01*
Y604090D01*
X473410D01*
Y596414D01*
X464740D01*
Y604090D01*
X445785D01*
X445498Y604783D01*
X448451Y607736D01*
X524149D01*
X526729Y605156D01*
X526910Y604440D01*
X526910D01*
X526910Y604440D01*
Y593360D01*
X546910D01*
Y583860D01*
X569990D01*
Y585536D01*
X583610D01*
Y581860D01*
X602190D01*
Y585536D01*
X609010D01*
Y581860D01*
X627590D01*
Y598440D01*
X609010D01*
Y593264D01*
X602190D01*
Y598440D01*
X583610D01*
Y593264D01*
X569990D01*
Y594940D01*
X549990D01*
Y602860D01*
X557180D01*
Y607130D01*
X546910D01*
Y604440D01*
X538375D01*
X528482Y614332D01*
X527229Y615170D01*
X525750Y615464D01*
D02*
G37*
G36*
X521822Y591280D02*
X511620D01*
Y581077D01*
X513362Y581307D01*
X516170Y582470D01*
X518580Y584319D01*
X520430Y586730D01*
X521593Y589537D01*
X521822Y591280D01*
D02*
G37*
G36*
X648780Y580938D02*
X648082Y580846D01*
X646247Y580086D01*
X644672Y578877D01*
X643464Y577302D01*
X642704Y575468D01*
X642612Y574770D01*
X648780D01*
Y580938D01*
D02*
G37*
G36*
X651320D02*
Y574770D01*
X657488D01*
X657396Y575468D01*
X656636Y577302D01*
X655427Y578877D01*
X653852Y580086D01*
X652018Y580846D01*
X651320Y580938D01*
D02*
G37*
G36*
X509080Y591280D02*
X498877D01*
X499107Y589537D01*
X500270Y586730D01*
X502119Y584319D01*
X504530Y582470D01*
X507337Y581307D01*
X509080Y581077D01*
Y591280D01*
D02*
G37*
G36*
X557180Y613940D02*
X546910D01*
Y609670D01*
X557180D01*
Y613940D01*
D02*
G37*
G36*
X591630Y615940D02*
X583610D01*
Y611514D01*
X582589D01*
X581427Y613027D01*
X579852Y614236D01*
X578018Y614996D01*
X577320Y615088D01*
Y607650D01*
Y600212D01*
X578018Y600304D01*
X579852Y601064D01*
X581427Y602272D01*
X582589Y603786D01*
X583610D01*
Y599360D01*
X591630D01*
Y607650D01*
Y615940D01*
D02*
G37*
G36*
X574780Y615088D02*
X574081Y614996D01*
X572247Y614236D01*
X570740Y613079D01*
X570193Y613190D01*
X569990Y613259D01*
Y613940D01*
X559720D01*
Y608400D01*
Y602860D01*
X569990D01*
X569990Y602860D01*
Y602860D01*
X570544Y602439D01*
X570672Y602272D01*
X572247Y601064D01*
X574081Y600304D01*
X574780Y600212D01*
Y607650D01*
Y615088D01*
D02*
G37*
G36*
X602190Y615940D02*
X594170D01*
Y608920D01*
X602190D01*
Y615940D01*
D02*
G37*
G36*
X509080Y604022D02*
X507337Y603793D01*
X504530Y602630D01*
X502119Y600780D01*
X500270Y598370D01*
X499107Y595562D01*
X498877Y593820D01*
X509080D01*
Y604022D01*
D02*
G37*
G36*
X511620D02*
Y593820D01*
X521822D01*
X521593Y595562D01*
X520430Y598370D01*
X518580Y600780D01*
X516170Y602630D01*
X513362Y603793D01*
X511620Y604022D01*
D02*
G37*
G36*
X602190Y606380D02*
X594170D01*
Y599360D01*
X602190D01*
Y606380D01*
D02*
G37*
G36*
X591630Y571490D02*
X583610D01*
Y567814D01*
X581839D01*
X580677Y569327D01*
X579102Y570536D01*
X577268Y571296D01*
X576570Y571388D01*
Y563950D01*
Y556512D01*
X577268Y556604D01*
X579102Y557364D01*
X580677Y558572D01*
X581839Y560086D01*
X583610D01*
Y554910D01*
X591630D01*
Y563200D01*
Y571490D01*
D02*
G37*
G36*
X718630Y562430D02*
X710110D01*
Y555910D01*
X718630D01*
Y562430D01*
D02*
G37*
G36*
X729690D02*
X721170D01*
Y555910D01*
X729690D01*
Y562430D01*
D02*
G37*
G36*
X574030Y571388D02*
X573331Y571296D01*
X571497Y570536D01*
X570590Y569840D01*
X569990Y569490D01*
Y569490D01*
X569990Y569490D01*
X559720D01*
Y563950D01*
Y558410D01*
X569990D01*
X569990Y558410D01*
Y558410D01*
X570589Y558061D01*
X571497Y557364D01*
X573331Y556604D01*
X574030Y556512D01*
Y563950D01*
Y571388D01*
D02*
G37*
G36*
X561150Y527989D02*
X558137Y527593D01*
X555330Y526430D01*
X552919Y524580D01*
X551070Y522170D01*
X549907Y519362D01*
X549510Y516350D01*
X549907Y513337D01*
X551070Y510530D01*
X552919Y508120D01*
X555330Y506270D01*
X558137Y505107D01*
X561150Y504710D01*
X564162Y505107D01*
X566970Y506270D01*
X569380Y508120D01*
X571230Y510530D01*
X572040Y512486D01*
X580011D01*
X581172Y510972D01*
X582747Y509764D01*
X584581Y509004D01*
X586550Y508745D01*
X588518Y509004D01*
X590352Y509764D01*
X591927Y510972D01*
X593136Y512547D01*
X593896Y514381D01*
X594155Y516350D01*
X593896Y518318D01*
X593136Y520152D01*
X591927Y521727D01*
X590352Y522936D01*
X588518Y523696D01*
X586550Y523955D01*
X584581Y523696D01*
X582747Y522936D01*
X581172Y521727D01*
X580011Y520214D01*
X572040D01*
X571230Y522170D01*
X569380Y524580D01*
X566970Y526430D01*
X564162Y527593D01*
X561150Y527989D01*
D02*
G37*
G36*
X657488Y572230D02*
X651320D01*
Y566062D01*
X651941Y566144D01*
X652536Y565549D01*
Y562431D01*
X652406Y562344D01*
X651181Y560512D01*
X650751Y558350D01*
Y551620D01*
X662048D01*
Y558350D01*
X661618Y560512D01*
X660394Y562344D01*
X660264Y562431D01*
Y567150D01*
X659970Y568629D01*
X659132Y569882D01*
X659132Y569882D01*
X657406Y571609D01*
X657488Y572230D01*
D02*
G37*
G36*
X602190Y561930D02*
X594170D01*
Y554910D01*
X602190D01*
Y561930D01*
D02*
G37*
G36*
X557180Y569490D02*
X546910D01*
Y565220D01*
X557180D01*
Y569490D01*
D02*
G37*
G36*
X648780Y572230D02*
X642612D01*
X642704Y571531D01*
X643464Y569697D01*
X644672Y568122D01*
X646247Y566914D01*
X648082Y566154D01*
X648780Y566062D01*
Y572230D01*
D02*
G37*
G36*
X627590Y615940D02*
X609010D01*
Y599360D01*
X627590D01*
Y603786D01*
X633349D01*
X676598Y560537D01*
X676581Y560512D01*
X676151Y558350D01*
Y542350D01*
X676581Y540188D01*
X677806Y538356D01*
X679638Y537131D01*
X681800Y536701D01*
X683961Y537131D01*
X685794Y538356D01*
X687018Y540188D01*
X687448Y542350D01*
Y558350D01*
X687018Y560512D01*
X685794Y562344D01*
X684949Y562909D01*
X684532Y563532D01*
X678953Y569112D01*
X679457Y569668D01*
X679650Y569510D01*
X682871Y567788D01*
X686366Y566728D01*
X690000Y566370D01*
X693634Y566728D01*
X697129Y567788D01*
X700350Y569510D01*
X703173Y571827D01*
X705490Y574650D01*
X707212Y577871D01*
X708272Y581366D01*
X708630Y585000D01*
X708272Y588634D01*
X707212Y592129D01*
X705490Y595350D01*
X703173Y598173D01*
X700350Y600490D01*
X697129Y602212D01*
X693634Y603272D01*
X690000Y603630D01*
X686366Y603272D01*
X682871Y602212D01*
X679650Y600490D01*
X676827Y598173D01*
X674510Y595350D01*
X672788Y592129D01*
X671728Y588634D01*
X671370Y585000D01*
X671728Y581366D01*
X672788Y577871D01*
X674510Y574650D01*
X674668Y574457D01*
X674112Y573953D01*
X637682Y610382D01*
X636429Y611220D01*
X634950Y611514D01*
X627590D01*
Y615940D01*
D02*
G37*
G36*
X602190Y571490D02*
X594170D01*
Y564470D01*
X602190D01*
Y571490D01*
D02*
G37*
G36*
X727338Y578580D02*
X712462D01*
X712554Y577882D01*
X713314Y576047D01*
X714522Y574472D01*
X716036Y573311D01*
Y571490D01*
X710110D01*
Y564970D01*
X729690D01*
Y571490D01*
X723764D01*
Y573311D01*
X725277Y574472D01*
X726486Y576047D01*
X727246Y577882D01*
X727338Y578580D01*
D02*
G37*
%LPD*%
G36*
X690636Y502049D02*
Y494431D01*
X690506Y494344D01*
X689281Y492511D01*
X688851Y490350D01*
Y474350D01*
X689281Y472188D01*
X690506Y470356D01*
X692338Y469131D01*
X694500Y468701D01*
X696661Y469131D01*
X698494Y470356D01*
X699718Y472188D01*
X700148Y474350D01*
Y478486D01*
X703336D01*
Y463840D01*
X703630Y462361D01*
X704467Y461108D01*
X706511Y459064D01*
Y451016D01*
X705796Y450868D01*
X705036Y452702D01*
X703827Y454277D01*
X702252Y455486D01*
X700418Y456246D01*
X698450Y456505D01*
X696481Y456246D01*
X694647Y455486D01*
X693072Y454277D01*
X691911Y452764D01*
X691090D01*
Y457190D01*
X685664D01*
Y470269D01*
X685794Y470356D01*
X687018Y472188D01*
X687448Y474350D01*
Y490350D01*
X687018Y492511D01*
X685794Y494344D01*
X685664Y494431D01*
Y497300D01*
X685370Y498779D01*
X684532Y500032D01*
X684532Y500032D01*
X678182Y506382D01*
X676929Y507220D01*
X675450Y507514D01*
X656400D01*
X654921Y507220D01*
X653667Y506382D01*
X642440Y495155D01*
X641690Y495465D01*
Y502380D01*
X626110D01*
Y493860D01*
X627465D01*
X627752Y493167D01*
X623875Y489290D01*
X619240D01*
Y489540D01*
X616564D01*
Y493860D01*
X623190D01*
Y513440D01*
X619264D01*
Y515661D01*
X677024D01*
X690636Y502049D01*
D02*
G37*
%LPC*%
G36*
X632630Y513440D02*
X626110D01*
Y504920D01*
X632630D01*
Y513440D01*
D02*
G37*
G36*
X641690D02*
X635170D01*
Y504920D01*
X641690D01*
Y513440D01*
D02*
G37*
%LPD*%
D10*
X558450Y544950D02*
D03*
Y563950D02*
D03*
X538450Y554450D02*
D03*
X558450Y589400D02*
D03*
Y608400D02*
D03*
X538450Y598900D02*
D03*
D11*
X636600Y470750D02*
D03*
Y475750D02*
D03*
Y480750D02*
D03*
Y485750D02*
D03*
X612700Y470750D02*
D03*
Y475750D02*
D03*
Y480750D02*
D03*
Y485750D02*
D03*
D12*
X624650Y478250D02*
D03*
D13*
X656400Y431400D02*
D03*
Y448900D02*
D03*
X719900Y507600D02*
D03*
Y525100D02*
D03*
X618300Y607650D02*
D03*
Y590150D02*
D03*
X592900D02*
D03*
Y607650D02*
D03*
X618300Y563200D02*
D03*
Y545700D02*
D03*
X592900D02*
D03*
Y563200D02*
D03*
X681800Y431400D02*
D03*
Y448900D02*
D03*
D14*
X615400Y503650D02*
D03*
X633900D02*
D03*
X431250Y560800D02*
D03*
X449750D02*
D03*
D15*
X482500Y478250D02*
D03*
X442500D02*
D03*
D16*
X694500Y550350D02*
D03*
X681800D02*
D03*
X669100D02*
D03*
X656400D02*
D03*
X694500Y482350D02*
D03*
X681800D02*
D03*
X669100D02*
D03*
X656400D02*
D03*
D17*
X719900Y545200D02*
D03*
Y563700D02*
D03*
Y487500D02*
D03*
Y469000D02*
D03*
D18*
X484950Y592550D02*
Y598900D01*
X427800Y592550D02*
X446850Y611600D01*
X525750D02*
X538450Y598900D01*
X446850Y611600D02*
X525750D01*
X593062Y465550D02*
X602425Y474913D01*
X561150Y465550D02*
X593062D01*
X602425Y525875D02*
X684975D01*
X602425Y474913D02*
Y525875D01*
Y480750D02*
X612700D01*
X669100Y532225D02*
Y550350D01*
X684975Y525875D02*
X694500Y535400D01*
X678625Y519525D02*
X694500Y503650D01*
X615400Y519525D02*
X678625D01*
X615400Y503650D02*
Y519525D01*
X558450Y589400D02*
X611200D01*
X558450Y544950D02*
X611200D01*
X694500Y550350D02*
X704950D01*
X710100Y545200D01*
X719900D01*
Y525100D02*
Y545200D01*
Y487500D02*
Y507600D01*
X618300Y607650D02*
X634950D01*
X681800Y550350D02*
Y560800D01*
Y482350D02*
Y497300D01*
X675450Y503650D02*
X681800Y497300D01*
X694500Y482350D02*
Y503650D01*
X612700Y485750D02*
Y500950D01*
X694500Y535400D02*
Y550350D01*
X656400Y471900D02*
Y482350D01*
X636600Y470750D02*
X642550D01*
X654150Y482350D01*
X656400D01*
X634950Y607650D02*
X681800Y560800D01*
X636600Y485750D02*
X644850D01*
Y492100D01*
X656400Y503650D01*
X675450D01*
X656400Y448900D02*
Y471900D01*
Y431400D02*
X681800D01*
X561150Y516350D02*
X586550D01*
X669100Y465550D02*
Y482350D01*
X561150Y490950D02*
X586550D01*
X681800Y448900D02*
Y482350D01*
Y448900D02*
X698450D01*
X681800Y431400D02*
X704800D01*
X474650D02*
X656400D01*
X442500Y463550D02*
Y478250D01*
Y463550D02*
X474650Y431400D01*
X519250Y554450D02*
X538450D01*
X487500Y483250D02*
Y522700D01*
X512900Y548100D01*
X519250Y554450D01*
X519875Y440150D02*
Y475075D01*
X535750Y490950D01*
X510350Y431400D02*
Y490950D01*
X535750Y516350D01*
X519875Y440150D02*
X634175D01*
X642925Y448900D01*
X656400D01*
X427800Y564250D02*
X431250Y560800D01*
X427800Y564250D02*
Y592550D01*
X656400Y550350D02*
Y567150D01*
X650050Y573500D02*
X656400Y567150D01*
X618300Y563200D02*
X622250D01*
X653225Y532225D01*
X669100D01*
X558450Y563950D02*
X592150D01*
X559200Y607650D02*
X592900D01*
X719900Y563700D02*
Y579850D01*
Y452850D02*
Y469000D01*
Y452850D02*
X726250Y446500D01*
X612700Y475750D02*
X622150D01*
X627150D02*
X636600D01*
X624650Y478250D02*
Y484600D01*
X633900Y493850D01*
Y503650D01*
X449750Y560800D02*
X453200Y564250D01*
Y592550D01*
X478600D01*
X484950D01*
X437500Y522700D02*
X484950Y570150D01*
Y592550D01*
X437500Y483250D02*
Y522700D01*
X478600Y592550D02*
X484950Y598900D01*
X707200Y482350D02*
X712350Y487500D01*
X719900D01*
X704800Y431400D02*
X710375Y436975D01*
Y460665D01*
X707200Y463840D02*
Y482350D01*
X694500D02*
X707200D01*
Y463840D02*
X710375Y460665D01*
D19*
X453200Y592550D02*
D03*
X484950D02*
D03*
D20*
X427800D02*
D03*
X535750Y465550D02*
D03*
X561150D02*
D03*
X535750Y516350D02*
D03*
Y490950D02*
D03*
X561150D02*
D03*
Y516350D02*
D03*
X510350Y592550D02*
D03*
D21*
X437500Y522700D02*
D03*
X487500D02*
D03*
D22*
X440000Y435000D02*
D03*
X690000Y585000D02*
D03*
D23*
X586550Y516350D02*
D03*
X669100Y465550D02*
D03*
X586550Y490950D02*
D03*
X698450Y448900D02*
D03*
X650050Y573500D02*
D03*
X576050Y607650D02*
D03*
X575300Y563950D02*
D03*
X719900Y579850D02*
D03*
X726250Y446500D02*
D03*
X624650Y456201D02*
D03*
M02*
